<?xml version="1.0" encoding="utf-8"?>
<!-- Generator: Adobe Illustrator 23.1.1, SVG Export Plug-In . SVG Version: 6.00 Build 0)  -->
<svg version="1.1" xmlns="http://www.w3.org/2000/svg" xmlns:xlink="http://www.w3.org/1999/xlink" x="0px" y="0px"
	 viewBox="0 0 2050 2050" style="enable-background:new 0 0 2050 2050;" xml:space="preserve">
<style type="text/css">
	.st0{stroke:#000000;stroke-miterlimit:10;}
	.st1{fill:none;stroke:#FFFFFF;stroke-width:28.1553;stroke-miterlimit:10;}
	.st2{fill:#FFFFFF;}
	.st3{fill:none;stroke:#FFFFFF;stroke-width:21.6712;stroke-miterlimit:10;}
	.st4{fill:none;stroke:#000000;stroke-width:28.1553;stroke-miterlimit:10;}
	.st5{fill:none;stroke:#000000;stroke-width:21.6712;stroke-miterlimit:10;}
</style>
<g id="Layer_1">
	<g>
		<path class="st1" d="M1455.07,1124.53c56.58-292.33,47.15-405.49,37.72-487.21c-9.43-81.73,15.72-320.62-91.16-248.32
			c-106.87,72.3-66.01,320.62-75.44,361.48c-9.43,40.86-103.73,182.31-113.16,352.05c-9.43,169.74,15.72,301.76-138.31,150.88
			c-154.02-150.88-248.32-301.76-380.34-320.62c-132.02-18.86-146.58,72.33-90,125.77c56.58,53.44,206.3,172.85,306.89,355.16
			c67.24,121.87,105.72,205.77,169.85,295.9c35.29,49.59,69.8,75.78,120.98,144.06c58.15,77.58,97.59,146.74,121.81,192.99"/>
		<path class="st1" d="M1495.85,877.89c64.84,20.57,86.99,48.45,95.24,70.12c6.08,15.97,4.48,28.23,12.86,75.01
			c4.64,25.91,9.54,46.78,12.86,60.01"/>
		<path class="st1" d="M1589.38,967.36c97,17.23,129.19,63.36,138.31,78.58c10.29,17.19,17.66,39.28,27.17,67.75
			c12.01,35.97,19.15,66.58,23.44,87.88"/>
		<path class="st1" d="M1754.86,1113.7c9.78,4.28,24.36,10.7,41.98,18.62c39.55,17.8,86.7,39.02,100.73,47.15
			c64.9,37.62,64.37,167.13,64.3,203.6c-0.31,152.69,6.34,373.15,13.01,651.01"/>
		<g>
			<path class="st2" d="M472.13,1176.93c-23.24-5.13-46.19-10.66-69.11-16.2c-22.92-5.54-45.78-11.13-68.64-17.03
				c-22.84-5.93-45.68-12.16-68.5-19.19c-22.79-7.12-45.66-14.87-68.28-24.47c-2.83-1.21-5.67-2.37-8.48-3.62l-8.42-3.93
				c-5.64-2.53-11.16-5.52-16.72-8.37c-2.8-1.39-5.52-2.98-8.26-4.55l-8.2-4.74c-2.7-1.66-5.36-3.42-8.04-5.14l-4.02-2.59l-2.01-1.3
				l-1.95-1.4l-7.82-5.63c-1.29-0.96-2.63-1.84-3.87-2.88l-3.76-3.06l-7.51-6.15c-2.43-2.15-4.8-4.38-7.2-6.57l-3.59-3.31
				c-0.59-0.56-1.21-1.09-1.78-1.68l-1.69-1.76l-6.76-7.07l-1.69-1.77l-0.84-0.89l-0.79-0.93l-3.16-3.73l-6.31-7.49
				c-16.19-20.5-29.11-43.24-39.06-66.66c-2.41-5.87-5.04-11.71-7.05-17.67l-3.15-8.92c-0.51-1.49-1.06-2.97-1.55-4.47l-1.35-4.49
				l-2.7-8.99c-0.89-3-1.84-5.99-2.52-9.01c-1.48-6.03-2.99-12.05-4.4-18.09l53.86-12.53c1.48,5.36,2.86,10.75,4.28,16.12
				c0.65,2.71,1.54,5.31,2.31,7.96l2.37,7.92l1.18,3.96c0.43,1.3,0.9,2.58,1.34,3.87c0.9,2.58,1.82,5.14,2.69,7.73
				c1.64,5.24,3.8,10.16,5.75,15.21c8.21,19.96,18.04,38.84,30.35,55.82c12.33,16.96,27.03,32.07,43.77,45.48l1.54,1.28l1.62,1.2
				l3.25,2.41c2.18,1.6,4.31,3.25,6.53,4.82l6.79,4.57c2.26,1.54,4.5,3.1,6.88,4.5c4.71,2.87,9.33,5.87,14.25,8.53l7.29,4.12
				c2.45,1.35,4.97,2.63,7.46,3.95c2.5,1.3,4.97,2.65,7.5,3.92l7.65,3.74c5.07,2.55,10.3,4.89,15.49,7.32
				c10.41,4.81,21.02,9.4,31.73,13.89c21.4,9.05,43.18,17.83,64.93,26.93C387.23,1134.13,430.76,1153.43,472.13,1176.93z"/>
		</g>
		<g>
			<path class="st2" d="M1324.03,579.29c-5.38-1.77-10.89-3.05-16.48-3.97c-2.79-0.45-5.61-0.79-8.43-1
				c-2.8-0.17-5.56-0.35-8.29-0.29c-5.45,0.03-11.01,0.72-16.99,1.8c-5.99,1.1-12.29,2.63-18.71,4.3
				c-6.42,1.69-12.96,3.5-19.56,5.31l-19.61,5.5c-6.53,1.85-13.08,3.66-19.64,5.46l-9.84,2.7l-5.44,1.58
				c-1.83,0.57-3.67,0.94-5.51,1.41c-7.34,1.73-14.67,3.03-21.96,3.75c-7.29,0.84-14.52,1.15-21.7,1.32
				c-14.36,0.23-28.5-0.55-42.45-2.17c-13.95-1.63-27.72-4.01-41.28-7.17c-6.79-1.5-13.51-3.31-20.2-5.16
				c-3.35-0.9-6.67-1.94-9.98-2.99c-3.31-1.04-6.61-2.11-9.9-3.23c6.97-0.04,13.86,0.23,20.76,0.33c3.45,0.02,6.88,0.11,10.31,0.19
				c3.43,0.12,6.87,0.04,10.28,0.1c13.68,0.2,27.28,0.07,40.74-0.42c13.45-0.49,26.81-1.36,39.81-3.32
				c6.48-1.01,12.91-2.14,19.14-3.7c3.14-0.71,6.19-1.61,9.24-2.45c1.53-0.41,2.99-0.96,4.49-1.43l2.23-0.73l2.18-0.81
				c1.44-0.57,2.92-1.04,4.31-1.67l4.27-1.81l9.64-3.93c6.42-2.63,12.86-5.24,19.32-7.81l19.36-7.75c6.41-2.55,12.89-5.06,19.55-7.5
				c6.66-2.44,13.52-4.83,20.87-6.94c7.37-2.05,15.37-3.78,23.62-4.57c4.12-0.43,8.23-0.59,12.28-0.62
				c4.04-0.01,8.07,0.17,12.09,0.51c8.04,0.65,16.03,2.09,23.84,4.09L1324.03,579.29z"/>
		</g>
		<g>
			<path class="st2" d="M1328.95,699.82c-5.35,1.18-10.73,2.21-16.14,3.07c-2.71,0.43-5.42,0.82-8.13,1.2
				c-2.72,0.35-5.44,0.66-8.16,0.96c-5.44,0.6-10.91,0.99-16.37,1.29c-5.46,0.31-10.93,0.41-16.39,0.42l-2.5,0l1.18,0.03
				c0.22,0.01,0.44,0,0.66-0.01l0.16-0.01l0.08-0.01c0.02,0-0.01,0-0.01,0l-0.11,0l-0.43,0l-0.82-0.01l-1.57-0.05l-3.04-0.13
				c-2.01-0.09-3.99-0.22-5.97-0.37c-3.95-0.29-7.86-0.63-11.76-0.98c-3.9-0.36-7.79-0.72-11.67-1.2
				c-3.88-0.45-7.75-0.89-11.62-1.41l-11.59-1.65c-3.85-0.64-7.71-1.21-11.56-1.89c-7.69-1.35-15.37-2.83-23.03-4.62l0.07-2.01
				c3.88-0.62,7.76-1.18,11.63-1.67c3.87-0.52,7.74-0.98,11.6-1.43l11.58-1.29l11.55-1.18l22.99-2.21c3.81-0.37,7.62-0.76,11.38-1.2
				l5.6-0.66l2.74-0.35l1.32-0.19l0.63-0.1l0.3-0.05l0.07-0.01l0.41-0.03c0.34-0.02,0.68-0.03,1.02-0.04l-1.32,0.04
				c5.02-0.86,10.01-1.84,14.97-2.84c4.97-1.02,9.9-2.18,14.82-3.34c2.46-0.6,4.91-1.22,7.35-1.86c2.45-0.63,4.89-1.27,7.32-1.95
				c4.87-1.34,9.72-2.72,14.55-4.14L1328.95,699.82z"/>
		</g>
		<g>
			<path class="st2" d="M881.59,398.77c-5.12,5.58-10.01,11.11-14.45,16.94c-4.45,5.81-8.53,11.8-12.18,17.98
				c-7.28,12.38-12.86,25.57-16.66,39.35c-3.9,13.75-5.77,28.14-6.19,42.8c-0.44,14.68,0.81,29.6,2.96,44.69l0.02,0.13
				c0.71,5.02-2.78,9.67-7.8,10.38c-4.05,0.58-7.87-1.6-9.56-5.1c-3.68-7.62-6.48-15.67-8.63-23.89
				c-2.12-8.23-3.66-16.67-4.38-25.24c-1.46-17.11-0.2-34.75,4.4-51.68c4.48-16.92,12.09-33.15,22.67-47.12
				c5.26-6.99,11.22-13.42,17.73-19.13c1.6-1.46,3.33-2.78,4.99-4.15c1.74-1.29,3.42-2.63,5.22-3.84c3.52-2.48,7.21-4.72,11.01-6.7
				c4.51-2.34,10.07-0.58,12.41,3.94c1.83,3.52,1.15,7.68-1.38,10.45L881.59,398.77z"/>
		</g>
		<g>
			<path class="st2" d="M1412.38-5.66c5.76,10.05,11.59,20.06,17.54,30c6,9.91,12,19.8,18.25,29.54
				c6.26,9.75,12.59,19.43,19.12,29.32c6.47,9.91,13.13,20.11,19.28,30.91c3.11,5.36,6.06,10.86,8.88,16.4
				c1.36,2.79,2.79,5.56,4.09,8.37c1.3,2.79,2.67,5.66,3.86,8.3c2.46,5.38,4.89,10.82,7.32,16.42c2.42,5.61,4.85,11.33,7.11,17.73
				c0.28,0.8,0.55,1.66,0.82,2.48c0.27,0.84,0.54,1.65,0.79,2.56l0.75,2.68l0.68,2.89c0.83,3.97,1.58,8.5,1.18,14.16
				c-0.12,1.42-0.25,2.82-0.6,4.36c-0.15,0.75-0.32,1.5-0.5,2.25c-0.17,0.63-0.34,1.12-0.51,1.68c-0.65,2.19-1.52,4.29-2.43,6.35
				c-1.88,4.1-4.26,7.78-6.87,11.06c-2.61,3.28-5.44,6.18-8.36,8.69c-2.92,2.52-5.92,4.79-8.95,6.74c-3.03,1.98-6.08,3.76-9.14,5.33
				c-3.06,1.61-6.13,3.02-9.2,4.32c-12.3,5.13-24.54,8.5-36.72,11.18c-12.2,2.59-24.33,4.45-36.43,5.77
				c-12.11,1.31-24.17,2.2-36.21,2.65c-12.03,0.52-24.04,0.58-36.01,0.46c-5.98-0.09-11.97-0.26-17.91-0.47
				c-5.94-0.2-12-0.5-17.98-0.9c-5.99-0.37-11.98-0.89-17.95-1.51c-5.97-0.59-11.92-1.32-17.85-2.14
				c-11.86-1.62-23.64-3.72-35.3-6.23c-5.83-1.27-11.62-2.68-17.4-4.12c-2.88-0.74-5.75-1.53-8.62-2.34
				c-2.87-0.79-5.72-1.64-8.56-2.51c23.73,1.49,47.27,2.27,70.69,1.83c2.93-0.07,5.85-0.1,8.77-0.22c2.92-0.09,5.84-0.15,8.76-0.3
				c2.92-0.13,5.83-0.24,8.74-0.43c2.91-0.17,5.82-0.29,8.72-0.51c5.83-0.36,11.57-0.89,17.43-1.35c5.86-0.5,11.68-1.04,17.49-1.62
				c23.23-2.28,46.31-5.22,68.83-9.47c11.24-2.15,22.37-4.57,33.09-7.65c10.73-3,21.14-6.6,30.41-11.13
				c4.61-2.26,8.95-4.72,12.63-7.42c3.69-2.68,6.74-5.59,8.68-8.4c0.97-1.4,1.77-2.74,2.28-4.05c0.23-0.66,0.49-1.3,0.62-1.95
				c0.04-0.14,0.11-0.36,0.12-0.44c-0.03,0.02-0.06,0.05-0.07,0.08c0.01,0.11-0.04,0.03-0.04-0.02c-0.02-0.24-0.16-1.61-0.64-3.38
				l-0.39-1.4l-0.52-1.56c-0.15-0.5-0.38-1.08-0.58-1.64l-0.63-1.7c-1.8-4.69-4.11-9.8-6.51-14.96c-2.41-5.17-4.98-10.43-7.51-15.75
				c-1.28-2.72-2.5-5.15-3.74-7.69c-1.23-2.53-2.55-4.98-3.82-7.48c-2.65-4.92-5.29-9.82-8.15-14.64
				c-5.65-9.65-11.88-19.25-18.31-29.12c-6.4-9.87-12.95-19.97-19.16-30.28c-6.22-10.3-12.36-20.67-18.08-31.27
				c-5.79-10.55-11.31-21.25-16.5-32.12L1412.38-5.66z"/>
		</g>
		<path class="st3" d="M1205.38,1261.12c-49.65,21.62-130.03-9.61-130.03-9.61"/>
	</g>
</g>
<g id="Layer_3">
</g>
<g id="Layer_2">
</g>
</svg>
